<svg width="255" height="230" viewBox="0 0 255 230" fill="none" xmlns="http://www.w3.org/2000/svg">
<rect width="255" height="230" fill="#F5F5F5"/>
<g id="deckbox">
<rect width="255" height="230" fill="white"/>
<g id="Box" filter="url(#filter0_i_0_1)">
<path id="bottomBack" d="M56 109H224V177H56V109Z" fill="#910000" fill-opacity="0.76"/>
<path id="bottomLeft" d="M30 162.468C30 152.392 33.0446 142.55 38.7346 134.234L56 109V177L30 215V162.468Z" fill="#A97474" fill-opacity="0.72"/>
<path id="bottomRight" d="M210 155.918C210 150.019 211.044 144.167 213.083 138.632L224 109V177L210 215V155.918Z" fill="#AD8D8D" fill-opacity="0.75"/>
<path id="bottomFront" d="M30 165H210V215H30V165Z" fill="#6C0000" fill-opacity="0.74"/>
</g>
<g id="Cover" filter="url(#filter1_d_0_1)">
<path id="coverRight" d="M210 147L224 109V122L210 198V147Z" fill="#4C27B6"/>
<path id="coverLeft" d="M30 147L56 109V122L30 198V147Z" fill="#4C27B6"/>
<path id="coverFront" d="M30 147H210V198H30V147Z" fill="#1C0F6F"/>
<path id="coverTop" d="M56 109H224L210 147H30L56 109Z" fill="#3C2FD3"/>
</g>
</g>
<defs>
<filter id="filter0_i_0_1" x="30" y="109" width="194" height="110" filterUnits="userSpaceOnUse" color-interpolation-filters="sRGB">
<feFlood flood-opacity="0" result="BackgroundImageFix"/>
<feBlend mode="normal" in="SourceGraphic" in2="BackgroundImageFix" result="shape"/>
<feColorMatrix in="SourceAlpha" type="matrix" values="0 0 0 0 0 0 0 0 0 0 0 0 0 0 0 0 0 0 127 0" result="hardAlpha"/>
<feOffset dy="4"/>
<feGaussianBlur stdDeviation="2"/>
<feComposite in2="hardAlpha" operator="arithmetic" k2="-1" k3="1"/>
<feColorMatrix type="matrix" values="0 0 0 0 0 0 0 0 0 0 0 0 0 0 0 0 0 0 0.25 0"/>
<feBlend mode="normal" in2="shape" result="effect1_innerShadow_0_1"/>
</filter>
<filter id="filter1_d_0_1" x="26" y="109" width="202" height="97" filterUnits="userSpaceOnUse" color-interpolation-filters="sRGB">
<feFlood flood-opacity="0" result="BackgroundImageFix"/>
<feColorMatrix in="SourceAlpha" type="matrix" values="0 0 0 0 0 0 0 0 0 0 0 0 0 0 0 0 0 0 127 0" result="hardAlpha"/>
<feOffset dy="4"/>
<feGaussianBlur stdDeviation="2"/>
<feComposite in2="hardAlpha" operator="out"/>
<feColorMatrix type="matrix" values="0 0 0 0 0 0 0 0 0 0 0 0 0 0 0 0 0 0 0.25 0"/>
<feBlend mode="normal" in2="BackgroundImageFix" result="effect1_dropShadow_0_1"/>
<feBlend mode="normal" in="SourceGraphic" in2="effect1_dropShadow_0_1" result="shape"/>
</filter>
</defs>
</svg>
