<?xml version="1.0" encoding="UTF-8"?>
<svg width="150px" height="150px" viewBox="0 0 150 150" version="1.1" xmlns="http://www.w3.org/2000/svg" xmlns:xlink="http://www.w3.org/1999/xlink">
    <title>Artboard Copy 5</title>
    <g id="Artboard-Copy-5" stroke="none" stroke-width="1" fill="none" fill-rule="evenodd">
        <g id="Group-3" transform="translate(25.224249, 25.222423)">
            <path d="M26.0835057,23.0656509 L5.14475571,27.5806509 C1.62357909,28.34665 -0.612075832,31.8195501 0.148505711,35.3419009 L12.5822557,92.7375259 C13.3482549,96.2587025 16.8211549,98.4943574 20.3435057,97.7337759 L50.8678807,91.1187759" id="Path" stroke="#E83411" stroke-width="6.5625" stroke-linecap="round" stroke-linejoin="round"></path>
            <polygon id="Path" stroke="#E83411" stroke-width="6.5625" stroke-linecap="round" stroke-linejoin="round" transform="translate(63.783171, 57.433067) rotate(17.680000) translate(-63.783171, -57.433067) " points="37.6819211 21.5427546 89.8844211 21.5427546 89.8844211 93.3233796 37.6819211 93.3233796"></polygon>
            <path d="M49.7040227,58.4995299 C49.7309034,58.2281694 49.7621019,57.9571434 49.7839956,57.6853876 C49.9309572,55.863222 50.0619851,54.0396575 50.2249716,52.2189515 C50.4457637,49.7528368 50.6883583,47.2886682 50.9276688,44.8242563 C50.9594147,44.4973709 51.0263426,44.1738912 51.0783402,43.8490128 C51.0838136,43.8146214 51.0984094,43.7816592 51.1228574,43.7023856 C51.1546033,43.7975625 51.1818792,43.8530266 51.1912449,43.9113794 C51.2946927,44.5558758 51.411368,45.1988214 51.4939256,45.8460545 C51.7744389,48.0455827 52.0013429,50.2524697 52.4083533,52.4342701 C52.6062178,53.49496 52.8351592,54.5482304 53.2165052,55.5616968 C53.2412573,55.62753 53.2693846,55.6920556 53.2996101,55.7660686 C53.3378025,55.7555778 53.3705518,55.7486448 53.401872,55.7376371 C53.8455848,55.5815228 54.2878075,55.42106 54.7336488,55.2712705 C54.8297987,55.2389469 54.8674133,55.1807156 54.8972435,55.095543 C55.187609,54.2662575 55.3711209,53.4100002 55.5326783,52.5490601 C55.9092199,50.5423182 56.169299,48.5185479 56.3876889,46.489669 C56.641352,44.1336007 56.8762533,41.7755254 57.1228314,39.4186969 C57.161267,39.0513081 57.2179778,38.6857742 57.2675124,38.3195713 C57.2742021,38.2702497 57.2883114,38.2219618 57.3291493,38.1709373 C57.3487016,38.3098712 57.3738489,38.4482578 57.3869852,38.5877998 C57.5827515,40.6647841 57.7714328,42.7424677 57.9729463,44.8189654 C58.2037426,47.1976268 58.4333529,49.5771701 58.8226659,51.9364617 C58.9477033,52.6941668 59.1381483,53.4410467 59.3004051,54.1924879 C59.312994,54.2507191 59.339236,54.3060007 59.3604303,54.3662997 C59.7782963,54.3309352 60.1862189,54.2964222 60.5941111,54.2618788 C60.6143019,54.2601455 60.6344016,54.2577433 60.6545925,54.2560101 C61.0488315,54.2222572 61.04947,54.2224701 61.1581176,53.8481787 C61.5273309,52.5761536 61.7573974,51.2756362 61.9467172,49.967152 C62.3262388,47.3440411 62.5410405,44.7046315 62.7098046,42.0612081 C62.8382782,40.049753 62.9451013,38.0368687 63.078653,36.0258089 C63.1322622,35.2181435 63.2309968,34.4134885 63.3110913,33.6076779 C63.3173249,33.5452504 63.3387017,33.4843129 63.3530238,33.4226456 C63.3681062,33.4219462 63.3831885,33.4212468 63.3982709,33.4205474 C63.4305945,33.6107795 63.4771795,33.7998561 63.4928396,33.9913958 C63.5786204,35.0410476 63.6641275,36.0907907 63.7361335,37.141446 C63.9349407,40.04133 64.1064719,42.9432513 64.3287844,45.8413109 C64.4863887,47.8961885 64.7305949,49.9438595 65.1400379,51.9663223 C65.2844756,52.6797534 65.4852593,53.3817208 65.6567905,54.0897698 C65.683884,54.2015494 65.7410509,54.2374612 65.8556889,54.2451848 C66.3202006,54.2764746 66.7842563,54.3166435 67.2475821,54.3622858 C67.3540099,54.3727766 67.4072846,54.3483894 67.4299386,54.2424785 C67.5949625,53.4709682 67.7942257,52.7052657 67.9229122,51.9278258 C68.2868952,49.7288449 68.5100592,47.5115888 68.7229756,45.2938462 C68.930601,43.1314765 69.1285871,40.9682553 69.3326549,38.8055511 C69.3528761,38.5913271 69.3858079,38.3782891 69.4128406,38.1647341 C69.4276797,38.1647037 69.4425188,38.1646733 69.4573578,38.1646733 C69.5035475,38.5047557 69.5590116,38.8438955 69.5945281,39.1851031 C69.8225268,41.3758738 70.037359,43.5680433 70.2735983,45.7579019 C70.5299069,48.134009 70.8028182,50.5090519 71.2768476,52.8537477 C71.4289785,53.6061619 71.6554569,54.3434633 71.844716,55.0884883 C71.8732994,55.2009369 71.9401665,55.2466705 72.0473241,55.2817916 C72.5082477,55.4327367 72.9654312,55.5951455 73.4437481,55.7602302 C73.466098,55.7083543 73.4955328,55.6465653 73.519768,55.5827695 C73.8880386,54.613425 74.1130574,53.6059186 74.3065735,52.590871 C74.6567514,50.7543224 74.8722525,48.8983735 75.103657,47.0445228 C75.2290289,46.0401484 75.3811599,45.0391189 75.5241684,44.0369947 C75.5381257,43.9390811 75.5727603,43.8441171 75.5978165,43.7477847 C75.6123819,43.7468725 75.6269169,43.7458994 75.6414823,43.7449872 C75.6725896,43.9030173 75.7148871,44.0597702 75.7330406,44.2192599 C75.8690249,45.4165119 76.015348,46.6128516 76.129469,47.8122322 C76.3011826,49.6168829 76.4550468,51.4232668 76.6058094,53.2297723 C76.7490004,54.9455406 76.8789032,56.662434 77.0134583,58.3789016 C77.0344094,58.6462786 77.0310037,58.6456401 76.7796821,58.7469898 C73.7673495,59.9615439 71.2784592,61.8779133 69.2404276,64.3926199 C67.1816577,66.9328996 65.7911936,69.8125623 64.9208574,72.9547064 C64.3910902,74.8672445 64.037385,76.8125623 63.8278135,78.7843655 C63.71649,79.8315847 63.6281549,80.8812365 63.5230651,81.9291855 C63.5065536,82.0939053 63.4560155,82.255189 63.4212289,82.4181148 C63.3947435,82.4189054 63.3682886,82.4197264 63.3418033,82.4205474 C63.3121252,82.3301446 63.267243,82.2417487 63.2554447,82.1490957 C63.208282,81.7775411 63.1617883,81.4054694 63.1322622,81.0322423 C62.9453141,78.6672949 62.6570772,76.3180683 62.0988786,74.0073686 C61.3812815,71.0366341 60.2468827,68.2485601 58.5018924,65.7256738 C56.7638352,63.2128221 54.611348,61.1456292 51.9170825,59.6800879 C51.2038946,59.2921434 50.4429966,58.9919562 49.7040227,58.6514784 L49.7040227,58.4995299 Z" id="Fill-1-Copy" fill="#E83411" transform="translate(63.362698, 57.920547) rotate(20.000000) translate(-63.362698, -57.920547) "></path>
            <path d="M78.3035057,24.3912759 L78.3035057,6.52815086 C78.1676632,2.96742079 75.3024113,0.117450194 71.7410057,0 L33.0310057,0 C29.3516768,-0.0495507395 26.2871986,2.81037167 26.0833911,6.48440086 L26.0833911,65.2144009 C26.0640017,68.5311832 28.5349912,71.3352764 31.8278807,71.7331509" id="Path" stroke="#E83411" stroke-width="6.5625" stroke-linecap="round" stroke-linejoin="round"></path>
        </g>
    </g>
</svg>